<svg width="663" height="286" viewBox="0 0 663 286" fill="none" xmlns="http://www.w3.org/2000/svg">
<path d="M404.112 128.539C395.891 121.112 385.967 117.482 374.492 117.482C363.176 117.482 353.252 121.118 345.025 128.539C336.804 135.806 332.626 145.92 332.626 158.876C332.626 171.833 336.804 181.941 345.025 189.368C353.246 196.635 363.176 200.271 374.492 200.271C385.967 200.271 395.891 196.635 404.112 189.368C412.491 181.941 416.669 171.833 416.669 158.876C416.669 145.92 412.485 135.806 404.112 128.539ZM358.992 175.463C354.656 171.2 352.474 165.665 352.474 158.876C352.474 152.082 354.639 146.553 358.992 142.445C363.328 138.182 368.454 136.128 374.487 136.128C380.525 136.128 385.803 138.182 390.145 142.445C394.633 146.553 396.815 152.082 396.815 158.876C396.815 165.671 394.65 171.2 390.145 175.463C385.809 179.571 380.531 181.625 374.487 181.625C368.454 181.625 363.34 179.571 358.992 175.463Z" fill="#21262E"/>
<path d="M445.992 198.055V89.6397H426.454V198.055H445.992Z" fill="#21262E"/>
<path d="M509.054 119.691V162.949C509.054 173.373 503.525 180.281 492.998 180.281C482.296 180.281 476.913 173.379 476.913 162.949V119.691H457.34V166.268C457.34 184.312 468.504 200.265 492.998 200.265H493.15C517.492 200.265 528.639 183.959 528.639 166.268V119.691H509.054Z" fill="#21262E"/>
<path d="M311.833 119.691L292.296 172.776L272.758 119.691H251.98L283.156 198.056H301.459L332.629 119.691H311.833Z" fill="#21262E"/>
<path d="M252.073 156.661C252.073 145.287 248.51 135.967 241.529 128.539C234.549 121.112 225.567 117.482 214.554 117.482C203.238 117.482 193.618 121.434 185.707 129.172C177.948 136.916 174.08 146.708 174.08 158.876C174.08 171.045 177.954 180.998 185.555 188.736C193.314 196.479 202.618 200.271 213.624 200.271C230.535 200.271 242.471 192.688 249.745 177.361L235.175 168.829C230.377 178.466 223.39 183.207 213.934 183.207C202.308 183.207 194.086 175.624 192.846 163.617H252.068V156.661H252.073ZM213.922 132.647C224.929 132.647 232.226 138.964 234.08 149.078H192.834C195.789 139.758 203.841 132.647 213.922 132.647Z" fill="#21262E"/>
<path d="M174.082 198.055L147.868 151.293C164.451 145.131 172.672 134.39 172.672 118.747C172.69 99.6291 157.792 87.4609 134.071 87.4609H87.7161V198.055H108.184V153.186H125.557L150.671 198.055H174.082ZM134.071 105.785C146.165 105.785 152.216 110.681 152.216 120.317C152.216 129.954 146.16 134.85 134.071 134.85H108.184V105.785H134.071Z" fill="#21262E"/>
<path d="M561.763 200.265C549.189 200.265 538.99 189.87 538.99 177.039V98.5186H558.527V119.72H575.28V135.835H558.527V175.761C558.527 179.523 561.517 182.568 565.216 182.568H575.28V200.265H561.763Z" fill="#21262E"/>
</svg>
